<svg width="113" height="32" viewBox="0 0 113 32" fill="none" xmlns="http://www.w3.org/2000/svg">
<path d="M0.875 25V22.2656L3.29688 21.7969V5.46875L0.875 5V2.25H3.29688H7.85938H10.2969V5L7.85938 5.46875V21.5H14.2812L14.5 18.6406H17.9844V25H0.875ZM27.8281 25.3281C25.3906 25.3281 23.4427 24.5469 21.9844 22.9844C20.526 21.4219 19.7969 19.4375 19.7969 17.0312V16.4062C19.7969 13.8958 20.4844 11.8281 21.8594 10.2031C23.2448 8.57812 25.099 7.77083 27.4219 7.78125C29.7031 7.78125 31.474 8.46875 32.7344 9.84375C33.9948 11.2188 34.625 13.0781 34.625 15.4219V17.9062H24.5312L24.5 18C24.5833 19.1146 24.9531 20.0312 25.6094 20.75C26.276 21.4688 27.1771 21.8281 28.3125 21.8281C29.3229 21.8281 30.1615 21.7292 30.8281 21.5312C31.4948 21.3229 32.224 21 33.0156 20.5625L34.25 23.375C33.5521 23.9271 32.6458 24.3906 31.5312 24.7656C30.4271 25.1406 29.1927 25.3281 27.8281 25.3281ZM27.4219 11.2969C26.5781 11.2969 25.9115 11.6198 25.4219 12.2656C24.9323 12.9115 24.6302 13.7604 24.5156 14.8125L24.5625 14.8906H30.1562V14.4844C30.1562 13.5156 29.9271 12.7448 29.4688 12.1719C29.0208 11.5885 28.3385 11.2969 27.4219 11.2969ZM43.5312 3.95312V8.09375H46.5V11.2969H43.5312V19.9062C43.5312 20.5625 43.6667 21.0312 43.9375 21.3125C44.2083 21.5938 44.5729 21.7344 45.0312 21.7344C45.3438 21.7344 45.6146 21.724 45.8438 21.7031C46.0833 21.6719 46.349 21.625 46.6406 21.5625L47.0312 24.8594C46.5208 25.0156 46.0156 25.1302 45.5156 25.2031C45.0156 25.2865 44.474 25.3281 43.8906 25.3281C42.3177 25.3281 41.1042 24.8958 40.25 24.0312C39.4062 23.1667 38.9844 21.7969 38.9844 19.9219V11.2969H36.5V8.09375H38.9844V3.95312H43.5312ZM62.5312 13.9062H59.4688L58.9844 11.7969C58.6719 11.5469 58.276 11.3385 57.7969 11.1719C57.3281 11.0052 56.8073 10.9219 56.2344 10.9219C55.4323 10.9219 54.7969 11.1042 54.3281 11.4688C53.8594 11.8229 53.625 12.2708 53.625 12.8125C53.625 13.3229 53.849 13.75 54.2969 14.0938C54.7448 14.4271 55.6406 14.724 56.9844 14.9844C59.0781 15.401 60.6302 16.0156 61.6406 16.8281C62.651 17.6302 63.1562 18.7396 63.1562 20.1562C63.1562 21.6771 62.5 22.9219 61.1875 23.8906C59.8854 24.849 58.1667 25.3281 56.0312 25.3281C54.7292 25.3281 53.5312 25.1406 52.4375 24.7656C51.3542 24.3802 50.3906 23.8333 49.5469 23.125L49.5 19.3281H52.6875L53.3125 21.5312C53.5833 21.7604 53.9531 21.9323 54.4219 22.0469C54.8906 22.151 55.3802 22.2031 55.8906 22.2031C56.8177 22.2031 57.5208 22.0365 58 21.7031C58.4896 21.3698 58.7344 20.9167 58.7344 20.3438C58.7344 19.8438 58.4896 19.4115 58 19.0469C57.5104 18.6823 56.6094 18.3594 55.2969 18.0781C53.3073 17.6719 51.8021 17.0729 50.7812 16.2812C49.7708 15.4792 49.2656 14.3906 49.2656 13.0156C49.2656 11.599 49.849 10.3802 51.0156 9.35938C52.1823 8.32812 53.8438 7.8125 56 7.8125C57.3125 7.8125 58.5521 7.98958 59.7188 8.34375C60.8958 8.69792 61.8177 9.15104 62.4844 9.70312L62.5312 13.9062ZM65.0938 22.2656L67.5156 21.7969V5.46875L65.0938 5V2.25H83.2031V8.48438H79.7031L79.5 5.76562H72.0781V12.0312H80.0469V15.5469H72.0781V21.7969L74.5156 22.2656V25H65.0938V22.2656ZM84.5 3.375V0.625H91.5V21.7969L93.7031 22.2656V25H84.7344V22.2656L86.9375 21.7969V3.84375L84.5 3.375ZM112.703 10.8438L111.125 11.0781L104.906 27.5312C104.417 28.75 103.76 29.7708 102.938 30.5938C102.125 31.4167 100.896 31.8281 99.25 31.8281C98.8646 31.8281 98.5 31.7969 98.1562 31.7344C97.8229 31.6719 97.4271 31.5833 96.9688 31.4688L97.5 28.1406C97.6458 28.1615 97.7969 28.1823 97.9531 28.2031C98.1094 28.224 98.2448 28.2344 98.3594 28.2344C99.1198 28.2344 99.7031 28.0469 100.109 27.6719C100.516 27.3073 100.828 26.849 101.047 26.2969L101.562 25.0156L96.2031 11.0938L94.625 10.8438V8.09375H102.906V10.8438L101.016 11.1562L103.328 17.9062L103.562 19.125L103.656 19.1406L106.328 11.1562L104.422 10.8438V8.09375H112.703V10.8438Z" fill="white"/>
</svg>
